<?xml version="1.0" encoding="UTF-8" standalone="no"?>
<svg xmlns:dc="http://purl.org/dc/elements/1.1/" xmlns:cc="http://creativecommons.org/ns#" xmlns:rdf="http://www.w3.org/1999/02/22-rdf-syntax-ns#" xmlns:svg="http://www.w3.org/2000/svg" xmlns="http://www.w3.org/2000/svg" xmlns:xlink="http://www.w3.org/1999/xlink" xmlns:sodipodi="http://sodipodi.sourceforge.net/DTD/sodipodi-0.dtd" xmlns:inkscape="http://www.inkscape.org/namespaces/inkscape" version="1.1" id="Calque_1" x="0px" y="0px" width="316.85391" height="275.03076" viewBox="0 0 316.85391 275.03077" enable-background="new 0 0 100 100" xml:space="preserve" inkscape:version="0.48.5 r10040" sodipodi:docname="opendatatour.svg"><metadata id="metadata45"><rdf:RDF><cc:Work rdf:about=""><dc:format>image/svg+xml</dc:format><dc:type rdf:resource="http://purl.org/dc/dcmitype/StillImage"/><dc:title/></cc:Work></rdf:RDF></metadata><defs id="defs43"><inkscape:perspective sodipodi:type="inkscape:persp3d" inkscape:vp_x="0 : 0.5 : 1" inkscape:vp_y="0 : 1000 : 0" inkscape:vp_z="1 : 0.5 : 1" inkscape:persp3d-origin="0.5 : 0.33333333 : 1" id="perspective3691"/><inkscape:perspective sodipodi:type="inkscape:persp3d" inkscape:vp_x="0 : 0.5 : 1" inkscape:vp_y="0 : 1000 : 0" inkscape:vp_z="1 : 0.5 : 1" inkscape:persp3d-origin="0.5 : 0.33333333 : 1" id="perspective3641-0"/><inkscape:perspective sodipodi:type="inkscape:persp3d" inkscape:vp_x="0 : 0.5 : 1" inkscape:vp_y="0 : 1000 : 0" inkscape:vp_z="1 : 0.5 : 1" inkscape:persp3d-origin="0.5 : 0.33333333 : 1" id="perspective3641-7"/><inkscape:perspective sodipodi:type="inkscape:persp3d" inkscape:vp_x="0 : 0.5 : 1" inkscape:vp_y="0 : 1000 : 0" inkscape:vp_z="1 : 0.5 : 1" inkscape:persp3d-origin="0.5 : 0.33333333 : 1" id="perspective3641"/><inkscape:perspective sodipodi:type="inkscape:persp3d" inkscape:vp_x="0 : 0.5 : 1" inkscape:vp_y="0 : 1000 : 0" inkscape:vp_z="1 : 0.5 : 1" inkscape:persp3d-origin="0.5 : 0.33333333 : 1" id="perspective2824"/><inkscape:perspective id="perspective10" inkscape:persp3d-origin="372.04724 : 350.78739 : 1" inkscape:vp_z="744.09448 : 526.18109 : 1" inkscape:vp_y="0 : 1000 : 0" inkscape:vp_x="0 : 526.18109 : 1" sodipodi:type="inkscape:persp3d"/></defs><sodipodi:namedview pagecolor="#ffffff" bordercolor="#666666" borderopacity="1" objecttolerance="10" gridtolerance="10" guidetolerance="10" inkscape:pageopacity="0" inkscape:pageshadow="2" inkscape:window-width="1280" inkscape:window-height="975" id="namedview41" showgrid="false" fit-margin-top="0" fit-margin-left="0" fit-margin-right="0" fit-margin-bottom="0" inkscape:zoom="1.2629866" inkscape:cx="163.48791" inkscape:cy="141.80462" inkscape:window-x="-4" inkscape:window-y="-4" inkscape:window-maximized="1" inkscape:current-layer="Calque_1" inkscape:snap-bbox="false" inkscape:object-paths="true" inkscape:snap-global="true"/><g id="g3" transform="matrix(2.1110888,0,0,2.1110888,52.86332,-5.3600545)" style="fill:#000000"><polygon points="5.226,62.299 9.007,62.299 9.007,47.49 2.804,47.49 2.804,50.671 5.226,50.671 " id="polygon5" style="fill:#000000"/><polygon points="27.707,47.49 27.707,50.671 30.128,50.671 30.128,62.299 33.91,62.299 33.91,47.49 " id="polygon7" style="fill:#000000"/><polygon points="16.171,65.123 16.171,68.307 18.592,68.307 18.592,79.933 22.374,79.933 22.374,65.123 " id="polygon9" style="fill:#000000"/><polygon points="16.171,82.37 16.171,85.554 18.592,85.554 18.592,97.18 22.374,97.18 22.374,82.37 " id="polygon11" style="fill:#000000"/><polygon points="27.707,65.123 27.707,68.307 30.128,68.307 30.128,79.933 33.91,79.933 33.91,65.123 " id="polygon13" style="fill:#000000"/><path d="m 21.594,47.688 c -0.701,-0.3 -1.5,-0.48 -2.262,-0.48 -0.76,0 -1.52,0.161 -2.241,0.442 -2.241,0.899 -3.342,2.799 -3.342,5.182 v 4.121 c 0,2.363 1.121,4.244 3.322,5.164 0.72,0.302 1.48,0.46 2.261,0.46 0.841,0 1.681,-0.182 2.441,-0.539 2.082,-0.96 3.022,-2.863 3.022,-5.085 v -4.121 c 0,-2.321 -1.04,-4.202 -3.201,-5.144 z m -0.581,9.368 c 0,1.159 -0.38,2.198 -1.741,2.198 -1.301,0 -1.741,-1.06 -1.741,-2.198 v -4.323 c 0,-1.122 0.44,-2.202 1.741,-2.202 1.361,0 1.741,1.04 1.741,2.202 v 4.323 z" id="path15" inkscape:connector-curvature="0" style="fill:#000000"/><polygon points="89.854,65.123 89.854,68.307 92.277,68.307 92.277,79.933 96.059,79.933 96.059,65.123 " id="polygon17" style="fill:#000000"/><polygon points="89.854,82.37 89.854,85.554 92.277,85.554 92.277,97.18 96.059,97.18 96.059,82.37 " id="polygon19" style="fill:#000000"/><path d="m 95.278,47.688 c -0.7,-0.3 -1.501,-0.48 -2.261,-0.48 -0.76,0 -1.521,0.161 -2.242,0.442 -2.241,0.899 -3.341,2.799 -3.341,5.182 v 4.121 c 0,2.363 1.121,4.244 3.322,5.164 0.72,0.302 1.479,0.46 2.261,0.46 0.84,0 1.68,-0.182 2.441,-0.539 2.082,-0.96 3.021,-2.863 3.021,-5.085 v -4.121 c 0,-2.321 -1.041,-4.202 -3.201,-5.144 z m -0.581,9.368 c 0,1.159 -0.38,2.198 -1.741,2.198 -1.301,0 -1.739,-1.06 -1.739,-2.198 v -4.323 c 0,-1.122 0.438,-2.202 1.739,-2.202 1.361,0 1.741,1.04 1.741,2.202 v 4.323 z" id="path21" inkscape:connector-curvature="0" style="fill:#000000"/><polygon points="69.48,79.933 73.262,79.933 73.262,65.123 67.06,65.123 67.06,68.307 69.48,68.307 " id="polygon23" style="fill:#000000"/><polygon points="78.595,65.123 78.595,68.307 81.016,68.307 81.016,79.933 84.799,79.933 84.799,65.123 " id="polygon25" style="fill:#000000"/><path d="m 72.482,82.571 c -0.701,-0.298 -1.5,-0.479 -2.261,-0.479 -0.762,0 -1.522,0.159 -2.241,0.44 -2.241,0.9 -3.344,2.801 -3.344,5.181 v 4.124 c 0,2.36 1.122,4.244 3.323,5.164 0.719,0.299 1.48,0.46 2.262,0.46 0.841,0 1.68,-0.182 2.439,-0.542 2.082,-0.96 3.022,-2.86 3.022,-5.082 v -4.124 c 0.002,-2.32 -1.038,-4.198 -3.2,-5.142 z m -0.581,9.366 c 0,1.162 -0.379,2.201 -1.741,2.201 -1.3,0 -1.739,-1.06 -1.739,-2.201 v -4.32 c 0,-1.122 0.439,-2.204 1.739,-2.204 1.362,0 1.741,1.043 1.741,2.204 v 4.32 z" id="path27" inkscape:connector-curvature="0" style="fill:#000000"/><path d="M 8.228,65.324 C 7.527,65.023 6.727,64.845 5.965,64.845 c -0.76,0 -1.52,0.158 -2.239,0.439 -2.242,0.9 -3.343,2.801 -3.343,5.185 v 4.121 c 0,2.36 1.121,4.241 3.322,5.164 0.721,0.298 1.481,0.457 2.26,0.457 0.842,0 1.682,-0.179 2.441,-0.539 2.082,-0.961 3.022,-2.86 3.022,-5.082 v -4.121 c 10e-4,-2.324 -1.04,-4.204 -3.2,-5.145 z m -0.582,9.365 c 0,1.162 -0.38,2.201 -1.741,2.201 -1.3,0 -1.74,-1.062 -1.74,-2.201 v -4.323 c 0,-1.119 0.44,-2.198 1.74,-2.198 1.361,0 1.741,1.039 1.741,2.198 v 4.323 z" id="path29" inkscape:connector-curvature="0" style="fill:#000000"/><polygon points="42.637,62.299 46.418,62.299 46.418,47.49 40.215,47.49 40.215,50.671 42.637,50.671 " id="polygon31" style="fill:#000000"/><polygon points="53.582,65.123 53.582,68.307 56.004,68.307 56.004,79.933 59.785,79.933 59.785,65.123 " id="polygon33" style="fill:#000000"/><polygon points="53.582,82.37 53.582,85.554 56.004,85.554 56.004,97.18 59.785,97.18 59.785,82.37 " id="polygon35" style="fill:#000000"/><path d="m 45.639,65.324 c -0.702,-0.301 -1.501,-0.479 -2.263,-0.479 -0.76,0 -1.52,0.158 -2.24,0.439 -2.242,0.9 -3.342,2.801 -3.342,5.185 v 4.121 c 0,2.36 1.121,4.241 3.322,5.164 0.721,0.298 1.481,0.457 2.26,0.457 0.842,0 1.682,-0.179 2.441,-0.539 2.082,-0.961 3.022,-2.86 3.022,-5.082 v -4.121 c 0.001,-2.324 -1.04,-4.204 -3.2,-5.145 z m -0.581,9.365 c 0,1.162 -0.38,2.201 -1.741,2.201 -1.3,0 -1.74,-1.062 -1.74,-2.201 v -4.323 c 0,-1.119 0.44,-2.198 1.74,-2.198 1.361,0 1.741,1.039 1.741,2.198 v 4.323 z" id="path37" inkscape:connector-curvature="0" style="fill:#000000"/><path d="m 81.751,44.757 1.139,0.001 11.635,0.021 0.425,-0.427 c 2.887,-3.004 4.668,-7.079 4.668,-11.563 0,-8.235 -5.993,-15.094 -13.842,-16.455 C 85.759,16.331 85.743,16.328 85.725,16.327 84.337,8.503 77.496,2.539 69.281,2.539 c -7.739,0 -14.262,5.292 -16.151,12.447 -2.866,-2.308 -6.503,-3.694 -10.459,-3.694 -8.319,0 -15.236,6.114 -16.499,14.085 -2.616,-1.703 -5.735,-2.697 -9.083,-2.697 -9.211,0 -16.706,7.495 -16.706,16.705 0,1.814 0.294,3.562 0.832,5.197 L 1.216,44.6 h 0.006 l 5.785,0.01 20.144,0.04 5.785,0.011 7.922,0.017 0.911,0.001 c 0.298,0.016 0.6,0.024 0.902,0.024 v -0.024 l 1.811,0.004 c 0.014,-0.003 0.029,-0.004 0.044,-0.006 l 6.111,0.016 c 0.559,1.433 1.316,2.764 2.228,3.975 -1.134,1.021 -1.704,2.466 -1.704,4.164 v 4.121 c 0,2.363 1.121,4.244 3.322,5.164 0.72,0.302 1.479,0.46 2.261,0.46 0.841,0 1.682,-0.182 2.441,-0.539 2.081,-0.96 3.021,-2.863 3.021,-5.085 v -2.088 c 0.79,0.195 1.602,0.33 2.431,0.408 v 1.68 c 0,2.363 1.122,4.244 3.323,5.164 0.719,0.302 1.48,0.46 2.262,0.46 0.841,0 1.68,-0.182 2.439,-0.539 2.082,-0.96 3.022,-2.863 3.022,-5.085 v -4.558 c 0.747,-0.517 1.445,-1.097 2.098,-1.725 h 3.234 v 11.628 h 3.783 V 47.49 h -4.441 c 0.541,-0.864 1.016,-1.773 1.394,-2.733 z M 30.471,39.438 28.45,39.435 5.729,39.39 c 0,-10e-4 0,-0.004 0,-0.007 0,-6.265 5.097,-11.362 11.361,-11.362 4.293,0 8.036,2.396 9.967,5.916 -0.009,-0.025 -0.018,-0.051 -0.026,-0.078 0.786,2.09 1.981,3.982 3.487,5.58 h -0.047 z m 27.954,17.618 c 0,1.159 -0.381,2.198 -1.741,2.198 -1.301,0 -1.741,-1.06 -1.741,-2.198 v -4.323 c 0,-0.536 0.104,-1.059 0.352,-1.463 0.956,0.828 2.005,1.55 3.131,2.146 v 3.64 z m 13.476,0 c 0,1.159 -0.379,2.198 -1.741,2.198 -1.3,0 -1.739,-1.06 -1.739,-2.198 v -1.858 c 1.206,-0.16 2.37,-0.451 3.48,-0.855 v 2.713 z m -5.693,-7.051 c -5.985,0 -10.896,-4.647 -11.328,-10.521 0,0 0,0 0,-0.003 -0.003,-0.021 -0.006,-0.04 -0.006,-0.061 L 49.52,39.409 c 10e-4,0.02 0.003,0.042 0.005,0.064 L 42.084,39.456 C 36.091,39.144 31.31,34.06 31.31,27.992 c 0.001,-6.259 5.097,-11.354 11.363,-11.354 6.265,0 11.361,5.094 11.361,11.36 h 5.345 c 0,-0.312 -0.012,-0.621 -0.027,-0.927 -0.005,-0.088 -0.016,-0.178 -0.021,-0.264 -0.016,-0.223 -0.033,-0.446 -0.059,-0.667 -0.01,-0.083 -0.021,-0.163 -0.031,-0.244 -0.031,-0.243 -0.064,-0.483 -0.105,-0.721 -0.007,-0.042 -0.014,-0.083 -0.02,-0.124 -0.153,-0.833 -0.362,-1.647 -0.632,-2.436 l -0.559,-3.372 c 0,-6.265 5.095,-11.362 11.36,-11.362 5.282,0 9.73,3.623 11,8.514 0.015,-0.003 0.032,-0.005 0.05,-0.007 0.22,0.877 0.338,1.798 0.338,2.745 0,0.886 -0.105,1.751 -0.3,2.579 0.815,-0.185 1.668,-0.288 2.542,-0.288 0.997,0 1.966,0.13 2.887,0.374 4.871,1.281 8.473,5.721 8.473,10.987 0,2.534 -0.835,4.877 -2.244,6.77 L 77.519,39.537 c 0.004,0.011 0.012,0.022 0.015,0.033 -0.092,1.238 -0.378,2.34 -0.837,3.437 -1.714,4.103 -5.771,6.998 -10.489,6.998 z" id="path39" inkscape:connector-curvature="0" style="fill:#000000"/></g>
<g id="g3050" transform="translate(-146.49868,-24.938559)"><path sodipodi:nodetypes="czsszs" id="path3619" d="m 278.04222,214.10717 c -0.90985,1.89794 2.4986,0.40689 5.19039,9.76308 2.6918,9.3562 1.08881,22.45225 -1.81307,28.70078 -13.76954,29.64963 6.62065,6.83897 6.52762,-13.53846 -0.028,-6.12503 -1.95308,-15.95173 -4.63424,-19.80985 -2.68116,-3.85812 -4.69676,-6.3128 -5.2707,-5.11555 z" style="fill:#ff0000;fill-opacity:1;stroke:#000000;stroke-width:0.0934763" inkscape:connector-curvature="0"/><path transform="matrix(0.03660726,-0.03622599,0.03874707,0.03792289,228.66615,237.92927)" d="m 1331.4286,583.79077 c 0,119.92469 -102.3349,217.14285 -228.5714,217.14285 -126.23654,0 -228.57145,-97.21816 -228.57145,-217.14285 0,-119.92468 102.33491,-217.14285 228.57145,-217.14285 126.2365,0 228.5714,97.21817 228.5714,217.14285 z" sodipodi:ry="217.14285" sodipodi:rx="228.57143" sodipodi:cy="583.79077" sodipodi:cx="1102.8572" id="path3631-4-4" style="fill:#ff0000;fill-opacity:1;stroke:none" sodipodi:type="arc"/><path transform="matrix(0.03660726,-0.03622599,0.03874707,0.03792289,214.2899,240.57044)" d="m 1331.4286,583.79077 c 0,119.92469 -102.3349,217.14285 -228.5714,217.14285 -126.23654,0 -228.57145,-97.21816 -228.57145,-217.14285 0,-119.92468 102.33491,-217.14285 228.57145,-217.14285 126.2365,0 228.5714,97.21817 228.5714,217.14285 z" sodipodi:ry="217.14285" sodipodi:rx="228.57143" sodipodi:cy="583.79077" sodipodi:cx="1102.8572" id="path3631-9" style="fill:#ff0000;fill-opacity:1;stroke:none" sodipodi:type="arc"/><path transform="matrix(0.03660726,-0.03622599,0.03874707,0.03792289,230.76588,224.7419)" d="m 1331.4286,583.79077 c 0,119.92469 -102.3349,217.14285 -228.5714,217.14285 -126.23654,0 -228.57145,-97.21816 -228.57145,-217.14285 0,-119.92468 102.33491,-217.14285 228.57145,-217.14285 126.2365,0 228.5714,97.21817 228.5714,217.14285 z" sodipodi:ry="217.14285" sodipodi:rx="228.57143" sodipodi:cy="583.79077" sodipodi:cx="1102.8572" id="path3631" style="fill:#ff0000;fill-opacity:1;stroke:none" sodipodi:type="arc"/><path transform="matrix(0.03660726,-0.03622599,0.03874707,0.03792289,207.74408,228.94628)" d="m 1331.4286,583.79077 c 0,119.92469 -102.3349,217.14285 -228.5714,217.14285 -126.23654,0 -228.57145,-97.21816 -228.57145,-217.14285 0,-119.92468 102.33491,-217.14285 228.57145,-217.14285 126.2365,0 228.5714,97.21817 228.5714,217.14285 z" sodipodi:ry="217.14285" sodipodi:rx="228.57143" sodipodi:cy="583.79077" sodipodi:cx="1102.8572" id="path3631-1" style="fill:#ff0000;fill-opacity:1;stroke:none" sodipodi:type="arc"/><path transform="matrix(0.03660726,-0.03622599,0.03874707,0.03792289,217.35682,218.89575)" d="m 1331.4286,583.79077 c 0,119.92469 -102.3349,217.14285 -228.5714,217.14285 -126.23654,0 -228.57145,-97.21816 -228.57145,-217.14285 0,-119.92468 102.33491,-217.14285 228.57145,-217.14285 126.2365,0 228.5714,97.21817 228.5714,217.14285 z" sodipodi:ry="217.14285" sodipodi:rx="228.57143" sodipodi:cy="583.79077" sodipodi:cx="1102.8572" id="path3631-4" style="fill:#ff0000;fill-opacity:1;stroke:none" sodipodi:type="arc"/><path sodipodi:nodetypes="csssssssssc" id="path2838" d="m 296.33371,225.4779 c -9.95592,8.5212 -6.89753,-6.33624 -12.16867,-5.44911 -5.27114,0.88712 2.97514,15.67901 -9.63722,9.11903 -11.45522,-5.95814 3.99178,-8.41393 1.5056,-13.07345 -2.48617,-4.65951 -13.74671,8.15263 -11.79052,-6.20225 1.80137,-13.21877 9.36459,1.13615 13.09918,-2.63072 3.7346,-3.76686 -13.69086,-9.85409 2.35028,-12.95223 12.56878,-2.4275 1.79586,9.11611 6.59014,11.44757 4.79428,2.33146 5.64662,-13.7506 13.24307,-1.80267 6.07126,9.54907 -8.25468,4.49792 -9.02625,9.70571 -0.77157,5.20779 14.67328,3.07714 5.83439,11.83812 z" style="fill:#ffffff;fill-opacity:1;stroke:#cccccc;stroke-width:0.56085777;stroke-miterlimit:4;stroke-opacity:1;stroke-dasharray:none;stroke-dashoffset:0" inkscape:connector-curvature="0"/><path transform="matrix(0.08698452,0.03565132,-0.03622578,0.08560513,253.65615,179.01302)" d="m 472.7514,210.90511 c 0,25.10513 -21.25625,45.45686 -47.47717,45.45686 -26.22092,0 -47.47717,-20.35173 -47.47717,-45.45686 0,-25.10514 21.25625,-45.45687 47.47717,-45.45687 26.22092,0 47.47717,20.35173 47.47717,45.45687 z" sodipodi:ry="45.456863" sodipodi:rx="47.477169" sodipodi:cy="210.90511" sodipodi:cx="425.27423" id="path3613" style="fill:#ff0000;fill-opacity:1;stroke:#ffffff;stroke-width:6;stroke-miterlimit:4;stroke-opacity:1;stroke-dasharray:none;stroke-dashoffset:0" sodipodi:type="arc"/></g><text xml:space="preserve" style="font-size:40px;font-style:normal;font-variant:normal;font-weight:normal;font-stretch:normal;text-align:start;line-height:125%;letter-spacing:0px;word-spacing:0px;writing-mode:lr-tb;text-anchor:start;fill:#ff0000;fill-opacity:1;stroke:none;font-family:Monospace;-inkscape-font-specification:Monospace" x="-1.1338915" y="352.30954" id="text3116" sodipodi:linespacing="125%" transform="matrix(0.69821099,-0.71589204,0.71589204,0.69821099,0,0)"><tspan sodipodi:role="line" id="tspan3118" x="-1.1338915" y="352.30954">tour</tspan></text>

<use id="use3082" xlink:href="#g3050" x="0" y="0" width="570" height="299.70316" transform="translate(24.828192,15.41674)"/><use id="use3106" xlink:href="#g3050" x="0" y="0" width="570" height="299.70316" transform="translate(-34.652783,16.376851)"/><text xml:space="preserve" style="font-size:33.32221603px;font-style:normal;font-variant:normal;font-weight:normal;font-stretch:normal;line-height:125%;letter-spacing:0px;word-spacing:0px;fill:#000000;fill-opacity:1;stroke:none;font-family:Georgia;-inkscape-font-specification:Georgia" x="-1.9850206" y="268.06696" id="text3027" sodipodi:linespacing="125%"><tspan sodipodi:role="line" id="tspan3029" x="-1.9850206" y="268.06696" style="font-style:normal;font-variant:normal;font-weight:bold;font-stretch:normal;font-family:Courier New;-inkscape-font-specification:Courier New Bold">#opendatasicilia</tspan></text>
</svg>